<svg width="15" height="4" viewBox="0 0 15 4" fill="none" xmlns="http://www.w3.org/2000/svg">
<path d="M1.58815 0.407683C2.44666 0.407683 3.14261 1.10361 3.14261 1.96214C3.14261 2.82067 2.44666 3.5166 1.58815 3.5166C0.729646 3.5166 0.0336914 2.82067 0.0336914 1.96214C0.0336914 1.10361 0.729646 0.407683 1.58815 0.407683Z" fill="#656565"/>
<path d="M7.02858 0.407683C7.88711 0.407683 8.58304 1.10361 8.58304 1.96214C8.58304 2.82067 7.88711 3.5166 7.02858 3.5166C6.17005 3.5166 5.47412 2.82067 5.47412 1.96214C5.47412 1.10361 6.17005 0.407683 7.02858 0.407683Z" fill="#656565"/>
<path d="M14.024 1.96214C14.024 1.10361 13.328 0.407683 12.4695 0.407683C11.611 0.407683 10.915 1.10361 10.915 1.96214C10.915 2.82067 11.611 3.5166 12.4695 3.5166C13.328 3.5166 14.024 2.82067 14.024 1.96214Z" fill="#656565"/>
</svg>
