<svg width="10" height="10" viewBox="0 0 10 10" fill="none" xmlns="http://www.w3.org/2000/svg">
<path d="M8.6321 3.03023L4.85581 6.8065C4.47976 7.18255 3.36349 7.35672 3.11411 7.10734C2.86473 6.85796 3.03494 5.7417 3.41099 5.36565L7.19125 1.58541C7.28447 1.4837 7.39733 1.40194 7.52304 1.34506C7.64872 1.28818 7.78465 1.25734 7.9226 1.25444C8.06051 1.25154 8.19763 1.27661 8.32561 1.32815C8.45358 1.37969 8.5698 1.45664 8.66721 1.55434C8.76463 1.65203 8.84126 1.76844 8.89245 1.89656C8.94363 2.02468 8.96837 2.16184 8.96508 2.29977C8.9618 2.4377 8.93057 2.57355 8.87337 2.69909C8.81613 2.82463 8.73407 2.93728 8.6321 3.03023Z" stroke="#656565" stroke-width="0.795107" stroke-linecap="round" stroke-linejoin="round"/>
<path d="M4.56279 2.0802H2.5836C2.16366 2.0802 1.76096 2.24701 1.46402 2.54395C1.16709 2.84089 1.00024 3.24362 1.00024 3.66355V7.62193C1.00024 8.04188 1.16709 8.4446 1.46402 8.74152C1.76096 9.03848 2.16366 9.20529 2.5836 9.20529H6.93782C7.81262 9.20529 8.12533 8.49278 8.12533 7.62193V5.64274" stroke="#656565" stroke-width="0.795107" stroke-linecap="round" stroke-linejoin="round"/>
</svg>
