<svg width="24" height="23" viewBox="0 0 24 23" fill="none" xmlns="http://www.w3.org/2000/svg">
<path d="M9.3631 22H4.82313C3.48492 22 2.8158 22 2.30467 21.7457C1.85506 21.522 1.48952 21.165 1.26044 20.726C1 20.2269 1 19.5734 1 18.2667V7.06667C1 5.75988 1 5.10648 1.26044 4.60736C1.48952 4.1683 1.85506 3.81135 2.30467 3.58765C2.8158 3.33333 3.48492 3.33333 4.82313 3.33333H18.682C20.0202 3.33333 20.6894 3.33333 21.2005 3.58765C21.65 3.81135 22.0156 4.1683 22.2447 4.60736C22.5051 5.10648 22.5051 5.75988 22.5051 7.06667V9.16667M5.77891 1V3.33333M17.7262 1V3.33333M1 8H22.5051M13.5447 12.6668L5.77891 12.6667M9.3631 17.3334L5.77891 17.3333M14.142 22L16.5613 21.5275C16.7722 21.4863 16.8777 21.4657 16.976 21.428C17.0634 21.3946 17.1464 21.3512 17.2232 21.2988C17.31 21.2398 17.3859 21.1656 17.5382 21.017L22.5051 16.1667C23.165 15.5223 23.165 14.4777 22.5051 13.8333C21.8453 13.189 20.7755 13.189 20.1157 13.8333L15.1487 18.6836C14.9965 18.8323 14.9205 18.9065 14.86 18.9912C14.8064 19.0662 14.762 19.1473 14.7278 19.2325C14.6892 19.3286 14.6681 19.4316 14.6259 19.6375L14.142 22Z" stroke="#656565" stroke-width="1.2" stroke-linecap="round" stroke-linejoin="round"/>
</svg>
