<svg width="19" height="19" viewBox="0 0 19 19" fill="none" xmlns="http://www.w3.org/2000/svg">
<path d="M11.9205 2.95821C11.7177 2.23902 11.0567 1.71191 10.2726 1.71191H7.98982C7.20572 1.71191 6.54474 2.23902 6.34187 2.95821M11.9205 2.95821C11.9623 3.1063 11.9846 3.26253 11.9846 3.42398V3.42398C11.9846 3.73916 11.7291 3.99467 11.4139 3.99467H6.84844C6.53326 3.99467 6.27776 3.73916 6.27776 3.42398V3.42398C6.27776 3.26253 6.3001 3.1063 6.34187 2.95821M11.9205 2.95821C12.4122 2.99534 12.9012 3.04221 13.3872 3.09862C14.2247 3.19581 14.8381 3.91781 14.8381 4.7609V14.8377C14.8381 15.7833 14.0716 16.5498 13.126 16.5498H5.13638C4.19083 16.5498 3.42432 15.7833 3.42432 14.8377V4.7609C3.42432 3.91781 4.03768 3.19581 4.87514 3.09862C5.36121 3.04221 5.85018 2.99534 6.34187 2.95821" stroke="#656565" stroke-width="1.14138" stroke-linecap="round" stroke-linejoin="round"/>
</svg>
