<svg width="16676" height="20368" viewBox="0 0 16676 20368" fill="none" xmlns="http://www.w3.org/2000/svg">
<g style="mix-blend-mode:darken">
<path d="M13104 727.327L12996.7 14490.6L11232.4 16115.5L11236 2446.24L13104 727.327Z" fill="black"/>
</g>
<g style="mix-blend-mode:darken">
<path d="M13104 727.327L12996.7 14490.6L11232.4 16115.5L11236 2446.24L13104 727.327Z" fill="black"/>
</g>
<path d="M13179.6 9473L7134.08 9472.99L7613.5 10866.1L11359.7 10866.1L13361.8 10940.2C14227.2 11205 15736.2 11906.5 13460.8 13354.6C18182 11008.4 13957.8 9514.06 13179.6 9473Z" fill="url(#paint0_linear_507_314)"/>
<g style="mix-blend-mode:darken">
<path d="M10066 3005.18L10075.8 16821.2L8357.86 18508L8247.07 4789.72L10066 3005.18Z" fill="#0C0C0C"/>
</g>
<path d="M1779.89 9274.94L7521.72 13087.1L6844.94 10928.4L3908.23 9071.24L2142.41 7776.26C1431.18 7107.89 104.782 6076.33 2654.94 5863.56C-2427.51 5700.01 1546.01 9012.96 1779.89 9274.94Z" fill="url(#paint1_linear_507_314)"/>
<path d="M6934.63 14667.6L1917.83 10826.3L1917.83 13750.9L5793.96 16515.4C8037.89 18026.3 5877.34 18325.2 5705.83 18650.8C8783.8 19296.4 7754.59 15371.5 6934.63 14667.6Z" fill="black"/>
<path d="M6521.5 4606.1L1952.93 641.059L1952.93 3900.33L5422.88 6955.88C6946.34 8774.67 5568.09 9216.48 5422.88 9560.38C8334.98 10057.7 7175 5440.6 6521.5 4606.1Z" fill="#0C0C0C"/>
<defs>
<linearGradient id="paint0_linear_507_314" x1="14142.2" y1="7864.98" x2="7665.63" y2="10974.6" gradientUnits="userSpaceOnUse">
<stop offset="0.822917" stop-color="#00CCFF"/>
<stop offset="1" stop-color="#00CCFF" stop-opacity="0"/>
</linearGradient>
<linearGradient id="paint1_linear_507_314" x1="431.985" y1="10167.2" x2="7131.28" y2="9448.32" gradientUnits="userSpaceOnUse">
<stop offset="0.630208" stop-color="#00CCFF"/>
<stop offset="1" stop-color="#00CCFF" stop-opacity="0"/>
</linearGradient>
</defs>
</svg>
