<svg width="19" height="20" viewBox="0 0 19 20" fill="none" xmlns="http://www.w3.org/2000/svg">
<path opacity="0.1" d="M18.5002 16C18.5002 14.3432 17.1571 13 15.5002 13C13.8433 13 12.5002 14.3432 12.5002 16C12.5002 17.6568 13.8433 19 15.5002 19C17.1571 19 18.5002 17.6568 18.5002 16Z" fill="#323232"/>
<path opacity="0.1" d="M18.5002 4C18.5002 2.3431 17.1571 1 15.5002 1C13.8433 1 12.5002 2.3431 12.5002 4C12.5002 5.6569 13.8433 7 15.5002 7C17.1571 7 18.5002 5.6569 18.5002 4Z" fill="#323232"/>
<path opacity="0.1" d="M6.5 10C6.5 8.3431 5.15685 7 3.5 7C1.84315 7 0.5 8.3431 0.5 10C0.5 11.6569 1.84315 13 3.5 13C5.15685 13 6.5 11.6569 6.5 10Z" fill="#323232"/>
<path d="M18.5002 16C18.5002 14.3432 17.1571 13 15.5002 13C13.8433 13 12.5002 14.3432 12.5002 16C12.5002 17.6568 13.8433 19 15.5002 19C17.1571 19 18.5002 17.6568 18.5002 16Z" stroke="#656565"/>
<path d="M18.5002 4C18.5002 2.3431 17.1571 1 15.5002 1C13.8433 1 12.5002 2.3431 12.5002 4C12.5002 5.6569 13.8433 7 15.5002 7C17.1571 7 18.5002 5.6569 18.5002 4Z" stroke="#656565"/>
<path d="M6.5 10C6.5 8.3431 5.15685 7 3.5 7C1.84315 7 0.5 8.3431 0.5 10C0.5 11.6569 1.84315 13 3.5 13C5.15685 13 6.5 11.6569 6.5 10Z" stroke="#656565"/>
<path d="M6.2204 11.3603L12.4998 14.5" stroke="#656565" stroke-linecap="round" stroke-linejoin="round"/>
<path d="M6.20599 8.64746L12.4999 5.50046" stroke="#656565" stroke-linecap="round" stroke-linejoin="round"/>
</svg>
