<svg width="28" height="28" viewBox="0 0 28 28" fill="none" xmlns="http://www.w3.org/2000/svg">
<circle cx="13.6603" cy="13.6603" r="13.6603" fill="#F1BD6C"/>
<path d="M6.05944 16.514L6.27752 15.0644L10.5878 15.0644L10.8059 16.514H6.05944ZM8.407 12.486L7.06004 15.5776L7.09852 15.9881L5.91833 18.5537H3.85298L8.407 9.048L12.961 18.5537H10.8828L9.72831 16.065L9.75396 15.6032L8.407 12.486ZM15.5678 16.514L15.7859 15.0644H20.0962L20.3143 16.514H15.5678ZM17.9154 12.486L16.5685 15.5776L16.6069 15.9881L15.4267 18.5537H13.3614L17.9154 9.048L22.4694 18.5537H20.3913L19.2367 16.065L19.2624 15.6032L17.9154 12.486Z" fill="#656565"/>
</svg>
